<?xml version="1.0" encoding="UTF-8"?>
<svg width="293px" height="300px" viewBox="0 0 293 300" version="1.1" xmlns="http://www.w3.org/2000/svg" xmlns:xlink="http://www.w3.org/1999/xlink">
    <!-- Generator: Sketch 45.2 (43514) - http://www.bohemiancoding.com/sketch -->
    <title>bar-triangles</title>
    <desc>Created with Sketch.</desc>
    <defs></defs>
    <g id="Page-1" stroke="none" stroke-width="1" fill="none" fill-rule="evenodd">
        <g id="Logo-Gives" transform="translate(-254.000000, -150.000000)" fill="#000000">
            <g id="bar-triangles" transform="translate(254.000000, 150.000000)">
                <rect id="Rectangle" x="77.1052632" y="0" width="55.075188" height="299.209215" rx="11.0294118"></rect>
                <rect id="Rectangle" x="0" y="0" width="55.075188" height="299.209215" rx="11.0294118"></rect>
                <path d="M280.027494,88.8174971 L186.092751,135.846159 C175.210367,141.294451 161.977495,136.877738 156.536303,125.981153 C155.006805,122.918166 154.210526,119.540672 154.210526,116.116148 L154.210526,22.0588235 C154.210526,9.87607169 164.073727,0 176.240602,0 C179.660663,0 183.033755,0.7973182 186.092751,2.32881196 L280.027494,49.357474 C290.909877,54.8057662 295.320835,68.0559068 289.879643,78.9524913 C287.747931,83.2214781 284.290917,86.6830037 280.027494,88.8174971 Z" id="Triangle"></path>
                <path d="M280.027494,249.846909 L186.092751,296.875571 C175.210367,302.323863 161.977495,297.90715 156.536303,287.010565 C155.006805,283.947578 154.210526,280.570083 154.210526,277.145559 L154.210526,183.088235 C154.210526,170.905483 164.073727,161.029412 176.240602,161.029412 C179.660663,161.029412 183.033755,161.82673 186.092751,163.358224 L280.027494,210.386886 C290.909877,215.835178 295.320835,229.085319 289.879643,239.981903 C287.747931,244.25089 284.290917,247.712415 280.027494,249.846909 Z" id="Triangle"></path>
            </g>
        </g>
    </g>
</svg>