<?xml version="1.0" encoding="UTF-8"?>
<svg width="331px" height="331px" viewBox="0 0 331 331" version="1.1" xmlns="http://www.w3.org/2000/svg" xmlns:xlink="http://www.w3.org/1999/xlink">
    <!-- Generator: Sketch 45.1 (43504) - http://www.bohemiancoding.com/sketch -->
    <title>cheese-cave</title>
    <desc>Created with Sketch.</desc>
    <defs></defs>
    <g id="Page-1" stroke="none" stroke-width="1" fill="none" fill-rule="evenodd">
        <g id="Dribbble-Shot" transform="translate(-235.000000, -135.000000)">
            <g id="cheese-cave" transform="translate(235.000000, 135.000000)">
                <path d="M115.329549,100.340901 L165.5,0 L216.735917,102.471835 L216.735917,102.471835 C187.726594,108.777462 166,134.601472 166,165.5 C166,201.122366 194.877634,230 230.5,230 C246.616598,230 261.352601,224.088975 272.658312,214.316624 L331,331 L276.611666,331 C276.867292,329.370855 277,327.700925 277,326 C277,308.326888 262.673112,294 245,294 C227.326888,294 213,308.326888 213,326 C213,327.700925 213.132708,329.370855 213.388334,331 L0,331 L84.4709166,162.058167 C89.2602148,164.575541 94.7137573,166 100.5,166 C119.553824,166 135,150.553824 135,131.5 C135,117.754736 126.961725,105.886913 115.329549,100.340901 Z M129,307 C148.882251,307 165,290.882251 165,271 C165,251.117749 148.882251,235 129,235 C109.117749,235 93,251.117749 93,271 C93,290.882251 109.117749,307 129,307 Z" id="Combined-Shape" fill="#000000"></path>
                <circle id="Oval-4" stroke="#000000" stroke-width="20" cx="232.5" cy="165.5" r="43.5"></circle>
            </g>
        </g>
    </g>
</svg>