<?xml version="1.0" encoding="UTF-8"?>
<svg width="340px" height="373px" viewBox="0 0 340 373" version="1.1" xmlns="http://www.w3.org/2000/svg" xmlns:xlink="http://www.w3.org/1999/xlink">
    <!-- Generator: Sketch 45.1 (43504) - http://www.bohemiancoding.com/sketch -->
    <title>Demon</title>
    <desc>Created with Sketch.</desc>
    <defs></defs>
    <g id="Page-1" stroke="none" stroke-width="1" fill="none" fill-rule="evenodd">
        <g id="Dribbble-Shot" transform="translate(-230.000000, -114.000000)" stroke="#000000">
            <g id="Demon" transform="translate(250.000000, 134.000000)">
                <path d="M98.1923099,7.07427409 L62.8900631,42.3445132 C53.7737562,51.4482801 48.6524259,63.796956 48.6524259,76.6727679 C48.6524259,89.5485797 53.7737562,101.897256 62.8933839,111.00434 C72.0071564,120.114125 84.3718996,125.232824 97.265625,125.232824 C110.15935,125.232824 122.524094,120.114125 131.639526,111.002681 L150,92.6588544 L168.360474,111.002681 C187.343619,129.968614 218.125131,129.968614 237.108276,111.002681 C256.086408,92.0417548 256.086409,61.3037805 237.108276,42.3428544 L184.717921,-10 L266.666667,-10 C290.596767,-10 310,9.3838294 310,33.3 L310,221.343842 L150,345.663842 L-10,221.343842 L-10,33.3 C-10,9.3838294 9.40323263,-10 33.3333333,-10 L115.282079,-10 L98.1923099,7.07427409 Z" id="Combined-Shape" stroke-width="20" stroke-linecap="round" stroke-linejoin="round"></path>
                <path d="M93.2262156,202.37195 L111.148629,172.778638 C111.900563,171.490681 111.905053,169.904807 111.160423,168.612705 C110.415793,167.320604 109.033886,166.516346 107.530291,166.5 L71.6854633,166.5 C70.181868,166.516346 68.7999612,167.320604 68.0553313,168.612705 C67.3107014,169.904807 67.3151909,171.490681 68.0671247,172.778638 L85.9895385,202.37195 C86.7567229,203.622903 88.1286195,204.386857 89.6078771,204.386857 C91.0871347,204.386857 92.4590312,203.622903 93.2262156,202.37195 Z" id="Eye" stroke-width="4.23197492" fill="#000000" stroke-linecap="round" stroke-linejoin="round"></path>
                <path d="M213.226216,202.37195 L231.148629,172.778638 C231.900563,171.490681 231.905053,169.904807 231.160423,168.612705 C230.415793,167.320604 229.033886,166.516346 227.530291,166.5 L191.685463,166.5 C190.181868,166.516346 188.799961,167.320604 188.055331,168.612705 C187.310701,169.904807 187.315191,171.490681 188.067125,172.778638 L205.989539,202.37195 C206.756723,203.622903 208.12862,204.386857 209.607877,204.386857 C211.087135,204.386857 212.459031,203.622903 213.226216,202.37195 Z" id="Eye" stroke-width="4.23197492" fill="#000000" stroke-linecap="round" stroke-linejoin="round"></path>
                <path d="M153.226216,288.37195 L171.148629,258.778638 C171.900563,257.490681 171.905053,255.904807 171.160423,254.612705 C170.415793,253.320604 169.033886,252.516346 167.530291,252.5 L131.685463,252.5 C130.181868,252.516346 128.799961,253.320604 128.055331,254.612705 C127.310701,255.904807 127.315191,257.490681 128.067125,258.778638 L145.989539,288.37195 C146.756723,289.622903 148.12862,290.386857 149.607877,290.386857 C151.087135,290.386857 152.459031,289.622903 153.226216,288.37195 Z" id="Tooth" stroke-width="4.23197492" fill="#000000" stroke-linecap="round" stroke-linejoin="round"></path>
                <path d="M108.226216,283.37195 L126.148629,253.778638 C126.900563,252.490681 126.905053,250.904807 126.160423,249.612705 C125.415793,248.320604 124.033886,247.516346 122.530291,247.5 L86.6854633,247.5 C85.181868,247.516346 83.7999612,248.320604 83.0553313,249.612705 C82.3107014,250.904807 82.3151909,252.490681 83.0671247,253.778638 L100.989539,283.37195 C101.756723,284.622903 103.12862,285.386857 104.607877,285.386857 C106.087135,285.386857 107.459031,284.622903 108.226216,283.37195 Z" id="Tooth" stroke-width="4.23197492" fill="#000000" stroke-linecap="round" stroke-linejoin="round"></path>
                <path d="M198.226216,283.37195 L216.148629,253.778638 C216.900563,252.490681 216.905053,250.904807 216.160423,249.612705 C215.415793,248.320604 214.033886,247.516346 212.530291,247.5 L176.685463,247.5 C175.181868,247.516346 173.799961,248.320604 173.055331,249.612705 C172.310701,250.904807 172.315191,252.490681 173.067125,253.778638 L190.989539,283.37195 C191.756723,284.622903 193.12862,285.386857 194.607877,285.386857 C196.087135,285.386857 197.459031,284.622903 198.226216,283.37195 Z" id="Tooth" stroke-width="4.23197492" fill="#000000" stroke-linecap="round" stroke-linejoin="round"></path>
                <path d="M42.75,253 L255.83449,253" id="Line" stroke-width="20" stroke-linecap="square"></path>
            </g>
        </g>
    </g>
</svg>