<?xml version="1.0" encoding="UTF-8"?>
<svg width="170px" height="168px" viewBox="0 0 170 168" version="1.1" xmlns="http://www.w3.org/2000/svg" xmlns:xlink="http://www.w3.org/1999/xlink">
    <!-- Generator: Sketch 45.1 (43504) - http://www.bohemiancoding.com/sketch -->
    <title>Egg</title>
    <desc>Created with Sketch.</desc>
    <defs>
        <ellipse id="path-1" cx="48.7865186" cy="48.8207547" rx="48.7865186" ry="48.8207547"></ellipse>
        <circle id="path-3" cx="19.1037736" cy="19.1037736" r="19.1037736"></circle>
        <circle id="path-4" cx="19.1037736" cy="19.1037736" r="19.1037736"></circle>
    </defs>
    <g id="Page-1" stroke="none" stroke-width="1" fill="none" fill-rule="evenodd">
        <g id="Dribbble-Shot" transform="translate(-237.000000, -338.000000)">
            <g id="Logo-Row" transform="translate(232.000000, 332.000000)">
                <g id="Egg" transform="translate(0.000000, 2.000000)">
                    <path d="M108.419593,8.87040833 L141.945241,25.0155095 L141.945241,25.0155095 C153.585256,30.6210453 162.039251,41.2220199 164.914097,53.8175444 L173.194248,90.0952575 L173.194248,90.0952575 C176.069095,102.690782 173.051899,115.909981 164.996758,126.010808 L141.79629,155.103275 L141.79629,155.103275 C133.74115,165.204101 121.524773,171.087198 108.605331,171.087198 L71.394669,171.087198 L71.394669,171.087198 C58.475227,171.087198 46.2588501,165.204101 38.2037098,155.103275 L15.0032415,126.010808 L15.0032415,126.010808 C6.94810125,115.909981 3.93090532,102.690782 6.80575161,90.0952575 L15.0859029,53.8175444 L15.0859029,53.8175444 C17.9607492,41.2220199 26.4147443,30.6210453 38.0547593,25.0155095 L71.5804073,8.87040833 L71.5804073,8.87040833 C83.2204223,3.26487255 96.7795777,3.26487255 108.419593,8.87040833 Z" id="Polygon" fill="#000000"></path>
                    <g id="Face" transform="translate(40.754717, 40.754717)">
                        <mask id="mask-2" fill="white">
                            <use xlink:href="#path-1"></use>
                        </mask>
                        <g id="Mask">
                            <use fill="#FFFFFF" fill-rule="evenodd" xlink:href="#path-1"></use>
                            <ellipse stroke="#000000" stroke-width="4.24528302" cx="48.7865186" cy="48.8207547" rx="46.6638771" ry="46.6981132"></ellipse>
                        </g>
                    </g>
                    <g id="Eyes" transform="translate(52.641509, 69.622642)">
                        <g id="Eye">
                            <g id="Oval-2">
                                <use fill="#FFFFFF" fill-rule="evenodd" xlink:href="#path-3"></use>
                                <circle stroke="#000000" stroke-width="4.24528302" cx="19.1037736" cy="19.1037736" r="16.9811321"></circle>
                            </g>
                            <path d="M19.4113758,11.0665333 C19.1904091,11.047467 18.9667753,11.0377358 18.7408704,11.0377358 C14.4865466,11.0377358 11.0377358,14.4889669 11.0377358,18.7462761 C11.0377358,23.0035853 14.4865466,26.4548163 18.7408704,26.4548163 C22.9951941,26.4548163 26.4440049,23.0035853 26.4440049,18.7462761 C26.4440049,18.5202126 26.4342805,18.2964219 26.4152276,18.0753001 C25.6664145,18.5023232 24.7998231,18.7462761 23.8762934,18.7462761 C21.0400776,18.7462761 18.7408704,16.4454554 18.7408704,13.6072493 C18.7408704,12.6830714 18.9846522,11.8158718 19.4113758,11.0665333 Z" id="Combined-Shape" fill="#000000"></path>
                        </g>
                        <g id="Eye" transform="translate(35.660377, 0.000000)">
                            <g id="Oval-2">
                                <use fill="#FFFFFF" fill-rule="evenodd" xlink:href="#path-4"></use>
                                <circle stroke="#000000" stroke-width="4.24528302" cx="19.1037736" cy="19.1037736" r="16.9811321"></circle>
                            </g>
                            <path d="M19.4113758,11.0665333 C19.1904091,11.047467 18.9667753,11.0377358 18.7408704,11.0377358 C14.4865466,11.0377358 11.0377358,14.4889669 11.0377358,18.7462761 C11.0377358,23.0035853 14.4865466,26.4548163 18.7408704,26.4548163 C22.9951941,26.4548163 26.4440049,23.0035853 26.4440049,18.7462761 C26.4440049,18.5202126 26.4342805,18.2964219 26.4152276,18.0753001 C25.6664145,18.5023232 24.7998231,18.7462761 23.8762934,18.7462761 C21.0400776,18.7462761 18.7408704,16.4454554 18.7408704,13.6072493 C18.7408704,12.6830714 18.9846522,11.8158718 19.4113758,11.0665333 Z" id="Combined-Shape" fill="#000000"></path>
                        </g>
                    </g>
                </g>
            </g>
        </g>
    </g>
</svg>