<?xml version="1.0" encoding="UTF-8"?>
<svg width="163px" height="180px" viewBox="0 0 163 180" version="1.1" xmlns="http://www.w3.org/2000/svg" xmlns:xlink="http://www.w3.org/1999/xlink">
    <!-- Generator: Sketch 45.1 (43504) - http://www.bohemiancoding.com/sketch -->
    <title>eye-ring</title>
    <desc>Created with Sketch.</desc>
    <defs>
        <path d="M0,36.25 C0,36.25 27.2727273,0 75,0 C122.727273,0 150,36.25 150,36.25 C150,36.25 122.727273,72.5 75,72.5 C27.2727273,72.5 0,36.25 0,36.25 Z" id="path-1"></path>
    </defs>
    <g id="Page-1" stroke="none" stroke-width="1" fill="none" fill-rule="evenodd">
        <g id="Dribbble-Shot" transform="translate(-241.000000, -521.000000)">
            <g id="Logo-Row" transform="translate(232.000000, 521.000000)">
                <g id="eye-ring" transform="translate(9.000000, 0.000000)">
                    <path d="M28.2001075,179.657002 C10.9278824,164.712705 0,142.632524 0,118 C0,72.9887929 36.4887929,36.5 81.5,36.5 C126.511207,36.5 163,72.9887929 163,118 C163,142.632524 152.072118,164.712705 134.799893,179.657002 C140.635202,170.153417 144,158.969654 144,147 C144,112.482203 116.017797,84.5 81.5,84.5 C46.9822031,84.5 19,112.482203 19,147 C19,158.969654 22.3647975,170.153417 28.2001113,179.657008 Z" id="Combined-Shape" fill="#000000"></path>
                    <path d="M55.1000537,173.078501 C46.4639412,165.606352 41,154.566262 41,142.25 C41,119.744396 59.2443964,101.5 81.75,101.5 C104.255604,101.5 122.5,119.744396 122.5,142.25 C122.5,154.566262 117.036059,165.606352 108.399946,173.078501 C111.317602,168.326706 113,162.734826 113,156.75 C113,139.491102 99.0088984,125.5 81.75,125.5 C64.4911016,125.5 50.5,139.491102 50.5,156.75 C50.5,162.734826 52.182398,168.326706 55.1000537,173.078501 Z" id="Combined-Shape" fill="#000000"></path>
                    <g id="Eye" transform="translate(6.500000, 0.000000)">
                        <g id="Shape">
                            <use fill="#FFFFFF" fill-rule="evenodd" xlink:href="#path-1"></use>
                            <path stroke="#000000" stroke-width="10" d="M6.54704667,36.25 C7.17241642,36.9413843 7.85456928,37.6697513 8.59285707,38.4294732 C12.5173904,42.4679446 17.162795,46.5168082 22.4938682,50.2959468 C37.6806444,61.0616836 55.239689,67.5 75,67.5 C94.760311,67.5 112.319356,61.0616836 127.506132,50.2959468 C132.837205,46.5168082 137.48261,42.4679446 141.407143,38.4294732 C142.145431,37.6697513 142.827584,36.9413843 143.452953,36.25 C142.827584,35.5586157 142.145431,34.8302487 141.407143,34.0705268 C137.48261,30.0320554 132.837205,25.9831918 127.506132,22.2040532 C112.319356,11.4383164 94.760311,5 75,5 C55.239689,5 37.6806444,11.4383164 22.4938682,22.2040532 C17.162795,25.9831918 12.5173904,30.0320554 8.59285707,34.0705268 C7.85456928,34.8302487 7.17241642,35.5586157 6.54704667,36.25 Z"></path>
                        </g>
                        <ellipse id="Oval" stroke="#000000" stroke-width="5" cx="74.6363636" cy="36.09375" rx="11.1363636" ry="11.09375"></ellipse>
                    </g>
                </g>
            </g>
        </g>
    </g>
</svg>