<?xml version="1.0" encoding="UTF-8"?>
<svg width="300px" height="280px" viewBox="0 0 300 280" version="1.1" xmlns="http://www.w3.org/2000/svg" xmlns:xlink="http://www.w3.org/1999/xlink">
    <!-- Generator: Sketch 45.1 (43504) - http://www.bohemiancoding.com/sketch -->
    <title>Froggy</title>
    <desc>Created with Sketch.</desc>
    <defs>
        <circle id="path-1" cx="150" cy="140" r="140"></circle>
        <circle id="path-2" cx="68.8953488" cy="85.8953488" r="68.8953488"></circle>
        <circle id="path-3" cx="230.895349" cy="85.8953488" r="68.8953488"></circle>
        <path d="M195.80808,4.04954623 L284.133056,47.3876747 L284.133056,47.3876747 C295.886446,53.1546721 301.64878,66.6553959 297.682062,79.131997 L297.682062,79.131997 L297.682062,79.131997 C293.571643,92.0605868 281.565746,100.841598 267.999465,100.841598 L202.154101,100.841598 L202.154101,100.841598 C167.875998,100.841598 140.088106,73.0537056 140.088106,38.7756031 L140.088106,38.7756031 L140.088106,38.7756031 C140.088106,17.4126474 157.406203,0.0945500982 178.769159,0.0945500982 C184.676283,0.0945500982 190.504938,1.44747074 195.80808,4.04954623 Z" id="path-4"></path>
        <path d="M55.7199742,4.04954623 L144.044951,47.3876747 L144.044951,47.3876747 C155.79834,53.1546721 161.560674,66.6553959 157.593956,79.131997 L157.593956,79.131997 L157.593956,79.131997 C153.483537,92.0605868 141.477641,100.841598 127.91136,100.841598 L62.0659951,100.841598 L62.0659951,100.841598 C27.7878925,100.841598 4.19785686e-15,73.0537056 0,38.7756031 L0,38.7756031 L0,38.7756031 C4.4819083e-14,17.4126474 17.3180973,0.0945500982 38.681053,0.0945500982 C44.588177,0.0945500982 50.416832,1.44747074 55.7199742,4.04954623 Z" id="path-5"></path>
    </defs>
    <g id="Page-1" stroke="none" stroke-width="1" fill="none" fill-rule="evenodd">
        <g id="Dribbble-Shot" transform="translate(-250.000000, -160.000000)">
            <g id="Froggy" transform="translate(250.000000, 160.000000)">
                <g id="Oval">
                    <use fill="#FFFFFF" fill-rule="evenodd" xlink:href="#path-1"></use>
                    <circle stroke="#000000" stroke-width="10" cx="150" cy="140" r="135"></circle>
                </g>
                <g id="left-eyeball">
                    <use fill="#FFFFFF" fill-rule="evenodd" xlink:href="#path-2"></use>
                    <circle stroke="#000000" stroke-width="10" cx="68.8953488" cy="85.8953488" r="63.8953488"></circle>
                </g>
                <g id="left-pupil" transform="translate(42.000000, 68.000000)" fill="#000000">
                    <rect id="Rectangle" x="0" y="11.3372093" width="54.0697674" height="13.0813953" rx="6.54069767"></rect>
                    <circle id="Oval-2" cx="27.0348837" cy="17.4418605" r="17.4418605"></circle>
                </g>
                <g id="right-eyeball">
                    <use fill="#FFFFFF" fill-rule="evenodd" xlink:href="#path-3"></use>
                    <circle stroke="#000000" stroke-width="10" cx="230.895349" cy="85.8953488" r="63.8953488"></circle>
                </g>
                <g id="right-pupil" transform="translate(204.000000, 68.000000)" fill="#000000">
                    <rect id="Rectangle" x="0" y="11.3372093" width="54.0697674" height="13.0813953" rx="6.54069767"></rect>
                    <circle id="Oval-2" cx="27.0348837" cy="17.4418605" r="17.4418605"></circle>
                </g>
                <g id="moustache" transform="translate(0.000000, 155.000000)">
                    <g id="Rectangle-2">
                        <use fill="#000000" fill-rule="evenodd" xlink:href="#path-4"></use>
                        <path stroke="#000000" stroke-width="13.215859" d="M192.897301,9.98183913 C188.500101,7.82427924 183.667162,6.70247961 178.769159,6.70247961 C161.055662,6.70247961 146.696035,21.0621061 146.696035,38.7756031 C146.696035,69.4042469 171.525457,94.2336686 202.154101,94.2336686 L267.999465,94.2336686 C278.687588,94.2336686 288.14637,87.3155952 291.384742,77.129874 C294.359989,67.7717689 290.037936,57.6455181 281.222278,53.3199676 L192.897301,9.98183913 Z"></path>
                    </g>
                    <g id="Rectangle-2" transform="translate(79.421229, 50.420799) scale(-1, 1) translate(-79.421229, -50.420799) ">
                        <use fill="#000000" fill-rule="evenodd" xlink:href="#path-5"></use>
                        <path stroke="#000000" stroke-width="13.215859" d="M52.8091953,9.98183913 C48.4119951,7.82427924 43.5790561,6.70247961 38.681053,6.70247961 C20.967556,6.70247961 6.60792952,21.0621061 6.60792952,38.7756031 C6.60792952,69.4042469 31.4373512,94.2336686 62.0659951,94.2336686 L127.91136,94.2336686 C138.599482,94.2336686 148.058264,87.3155952 151.296637,77.129874 C154.271883,67.7717689 149.94983,57.6455181 141.134172,53.3199676 L52.8091953,9.98183913 Z"></path>
                    </g>
                </g>
            </g>
        </g>
    </g>
</svg>