<?xml version="1.0" encoding="UTF-8"?>
<svg width="400px" height="402px" viewBox="0 0 400 402" version="1.1" xmlns="http://www.w3.org/2000/svg" xmlns:xlink="http://www.w3.org/1999/xlink">
    <!-- Generator: Sketch 45.1 (43504) - http://www.bohemiancoding.com/sketch -->
    <title>Holy Cow</title>
    <desc>Created with Sketch.</desc>
    <defs></defs>
    <g id="Page-1" stroke="none" stroke-width="1" fill="none" fill-rule="evenodd">
        <g id="Dribbble-Shot" transform="translate(-200.000000, -99.000000)">
            <g id="Holy-Cow" transform="translate(200.000000, 99.000000)">
                <ellipse id="Oval" stroke="#000000" stroke-width="20" cx="200" cy="311" rx="112" ry="81"></ellipse>
                <path d="M0,74.6765048 C0,52.8957487 8.33325,35.0046816 25,21.002767 C41.66675,7.00085232 62.88876,0 88.6666667,0 C107.777873,0 122.777723,3.72267544 133.666667,11.168138 C144.55561,18.6136006 150,28.8926298 150,42.005534 C150,50.0066281 136.000025,76.4864115 131,81.375969 C125.999975,86.2655265 108.444377,31.3374852 122,26.6701803 C127.555583,24.8921594 130.333333,23.0030405 130.333333,21.002767 C130.333333,17.8912304 126.611148,14.6686158 119.166667,11.3348266 C111.722185,8.00103742 104.44448,6.33416782 97.3333333,6.33416782 C84.2221567,6.33416782 73.7222617,12.3348984 65.8333333,24.3365395 C57.944405,36.3381807 54,52.3401288 54,72.342864 C54,90.5675784 57.55552,104.73597 64.6666667,114.848464 C71.7778133,124.960958 81.7777133,130.017129 94.6666667,130.017129 C107.333397,130.017129 119.777717,125.572143 132,116.682039 C131.555553,122.905112 131.222223,130.794961 131,140.351824 C130.111107,188.358388 128.777787,214.361554 127,218.362101 C125.66666,221.251385 113.44456,222.584881 90.3333333,222.362628 L30.6666667,222.029251 C25.7777533,222.029251 23.0000033,224.918492 22.3333333,230.69706 C22.11111,233.808596 21.11112,235.364341 19.3333333,235.364341 C17.77777,235.364341 17,233.919721 17,231.030437 C17,215.250501 18.22221,203.026791 20.6666667,194.358939 C22.22223,188.802624 25.33331,185.13551 30,183.35749 C33.1111267,182.246226 38.2221867,181.690603 45.3333333,181.690603 C44.8888867,181.690603 46.7777567,181.801728 51,182.02398 L122.333333,182.02398 C123.222227,169.800087 3.70727539,186.074173 19.3333333,162.236003 C19.3333333,162.721373 95.22231,140.685201 77.6666667,140.685201 C54.1109933,140.685201 35.2778483,134.68447 21.1666667,122.682829 C7.055485,110.681188 0,94.6792401 0,74.6765048 Z" id="left-head" fill="#000000"></path>
                <g id="Eye" transform="translate(150.000000, 117.682171)" fill="#000000">
                    <rect id="Rectangle" x="0" y="0" width="37.5" height="37.5581395"></rect>
                    <rect id="Rectangle-Copy" x="0" y="50.0775194" width="37.5" height="37.5581395" rx="18.75"></rect>
                </g>
                <g id="Eye" transform="translate(212.500000, 117.682171)" fill="#000000">
                    <rect id="Rectangle" x="0" y="0" width="37.5" height="37.5581395"></rect>
                    <rect id="Rectangle-Copy" x="0" y="50.0775194" width="37.5" height="37.5581395" rx="18.75"></rect>
                </g>
                <g id="Nostril" transform="translate(150.000000, 285.441860)" fill="#000000">
                    <rect id="Rectangle-Copy" x="0" y="0" width="37.5" height="37.5581395" rx="18.75"></rect>
                </g>
                <g id="Nostril" transform="translate(212.500000, 285.441860)" fill="#000000">
                    <rect id="Rectangle-Copy" x="0" y="0" width="37.5" height="37.5581395" rx="18.75"></rect>
                </g>
                <path d="M400,74.6765048 C400,52.8957487 391.66675,35.0046816 375,21.002767 C358.33325,7.00085232 337.11124,0 311.333333,0 C292.222127,0 277.222277,3.72267544 266.333333,11.168138 C255.44439,18.6136006 250,28.8926298 250,42.005534 C250,50.0066281 263.999975,76.4864115 269,81.375969 C274.000025,86.2655265 291.555623,31.3374852 278,26.6701803 C272.444417,24.8921594 269.666667,23.0030405 269.666667,21.002767 C269.666667,17.8912304 273.388852,14.6686158 280.833333,11.3348266 C288.277815,8.00103742 295.55552,6.33416782 302.666667,6.33416782 C315.777843,6.33416782 326.277738,12.3348984 334.166667,24.3365395 C342.055595,36.3381807 346,52.3401288 346,72.342864 C346,90.5675784 342.44448,104.73597 335.333333,114.848464 C328.222187,124.960958 318.222287,130.017129 305.333333,130.017129 C292.666603,130.017129 280.222283,125.572143 268,116.682039 C268.444447,122.905112 268.777777,130.794961 269,140.351824 C269.888893,188.358388 271.222213,214.361554 273,218.362101 C274.33334,221.251385 286.55544,222.584881 309.666667,222.362628 L369.333333,222.029251 C374.222247,222.029251 376.999997,224.918492 377.666667,230.69706 C377.88889,233.808596 378.88888,235.364341 380.666667,235.364341 C382.22223,235.364341 383,233.919721 383,231.030437 C383,215.250501 381.77779,203.026791 379.333333,194.358939 C377.77777,188.802624 374.66669,185.13551 370,183.35749 C366.888873,182.246226 361.777813,181.690603 354.666667,181.690603 C355.111113,181.690603 353.222243,181.801728 349,182.02398 L277.666667,182.02398 C276.777773,169.800087 396.292725,186.074173 380.666667,162.236003 C380.666667,162.721373 304.77769,140.685201 322.333333,140.685201 C345.889007,140.685201 364.722152,134.68447 378.833333,122.682829 C392.944515,110.681188 400,94.6792401 400,74.6765048 Z" id="right-head" fill="#000000"></path>
            </g>
        </g>
    </g>
</svg>