<?xml version="1.0" encoding="UTF-8"?>
<svg width="300px" height="300px" viewBox="0 0 300 300" version="1.1" xmlns="http://www.w3.org/2000/svg" xmlns:xlink="http://www.w3.org/1999/xlink">
    <!-- Generator: Sketch 45.1 (43504) - http://www.bohemiancoding.com/sketch -->
    <title>onion</title>
    <desc>Created with Sketch.</desc>
    <defs></defs>
    <g id="Page-1" stroke="none" stroke-width="1" fill="none" fill-rule="evenodd">
        <g id="Dribbble-Shot" transform="translate(-250.000000, -150.000000)" stroke="#000000" stroke-width="15.8730159">
            <g id="onion" transform="translate(250.000000, 150.000000)">
                <path d="M103.760365,195.867947 L133.162529,195.776747 C145.087565,195.754179 155.862105,188.559474 160.451746,177.554671 C165.034099,166.567344 162.547585,153.950191 154.159455,145.578396 C145.765521,137.200808 133.105844,134.715622 122.082795,139.294984 C111.052936,143.877177 103.84836,154.624519 103.825769,166.515271 L103.760365,195.867947 Z" id="Shape"></path>
                <path d="M72.419953,227.494479 L139.270226,227.308648 C166.345348,227.266131 190.794491,210.944554 201.206706,185.962671 C211.612368,160.99651 205.948437,132.30166 186.862656,113.253045 C167.771073,94.1986408 139.002338,88.5422216 113.973174,98.9335521 C88.9389581,109.32698 72.5897056,133.72229 72.5471224,160.733617 L72.419953,227.494479 Z" id="Shape"></path>
                <path d="M39.8170069,259.752594 L143.962071,259.429543 C186.132077,259.349738 224.219048,233.917145 240.449662,195.000219 C256.672988,156.10077 247.862793,111.395774 218.135783,81.7266541 C188.402969,52.0517406 143.59284,43.2551867 104.603207,59.452854 C65.6067644,75.6533506 40.1287151,113.659936 40.0487757,155.73676 L39.8170069,259.752594 Z" id="Shape"></path>
                <path d="M8.20548003,291.546616 L149.721994,291.10764 C207.014486,290.999217 258.757671,256.44768 280.808773,203.574692 C302.852585,150.719182 290.880549,89.9702643 250.4841,49.6524818 C210.081845,9.32890568 149.196491,-2.62333187 96.2235661,19.3834876 C43.2438311,41.3931363 8.62904507,93.0293428 8.52043135,150.199203 L8.20548003,291.546616 Z" id="Shape"></path>
            </g>
        </g>
    </g>
</svg>