<?xml version="1.0" encoding="UTF-8"?>
<svg width="251px" height="300px" viewBox="0 0 251 300" version="1.1" xmlns="http://www.w3.org/2000/svg" xmlns:xlink="http://www.w3.org/1999/xlink">
    <!-- Generator: Sketch 45.1 (43504) - http://www.bohemiancoding.com/sketch -->
    <title>Skull Shield</title>
    <desc>Created with Sketch.</desc>
    <defs></defs>
    <g id="Page-1" stroke="none" stroke-width="1" fill="none" fill-rule="evenodd">
        <g id="Dribbble-Shot" transform="translate(-275.000000, -150.000000)" fill="#000000">
            <g id="Skull-Shield" transform="translate(275.000000, 150.000000)">
                <path d="M251,12.4999937 L251,162.5 C251,173.697923 248.810286,184.798173 244.43087,195.800785 C240.051442,206.803386 234.626177,216.569016 228.155087,225.097665 C221.683986,233.626301 213.970967,241.927088 205.016018,250.000002 C196.061069,258.072916 187.792451,264.778647 180.210164,270.117198 C172.627866,275.455736 164.718753,280.501301 156.482816,285.253916 C148.246878,290.00652 142.396747,293.229168 138.932423,294.921885 C135.4681,296.61459 132.690107,297.916672 130.598445,298.82813 C129.02969,299.609377 127.330214,300 125.500006,300 C123.669797,300 121.97031,299.609377 120.401567,298.82813 C118.309893,297.916672 115.5319,296.61459 112.067577,294.921885 C108.603253,293.229168 102.753122,290.00652 94.5171844,285.253916 C86.2812467,280.501301 78.3721345,275.455736 70.7898477,270.117198 C63.2075492,264.778647 54.9389313,258.072916 45.9839824,250.000002 C37.0290334,241.927088 29.3160141,233.626301 22.8449244,225.097665 C16.373823,216.569016 10.94857,206.803386 6.56914201,195.800785 C2.189714,184.798173 0,173.697923 0,162.5 L0,12.4999937 C0,9.11458359 1.24192962,6.18489684 3.72577714,3.71093344 C6.20963638,1.23697003 9.15104185,0 12.5500053,0 L238.450006,0 C241.848958,0 244.790375,1.23697003 247.274223,3.71093344 C249.758082,6.18489684 251,9.11458359 251,12.4999937 Z M163.5,221 C168,221 171,218 171,213.5 L171,176 C189.75,161.75 201,140 201,116 C201,74.75 167.25,41 126,41 C84.75,41 51,74.75 51,116 C51,140 62.25,161.75 81,176 L81,213.5 C81,218 84,221 88.5,221 L163.5,221 Z" id="Combined-Shape" fill-rule="nonzero"></path>
                <path d="M106,230 C100,230 96,226 96,220 L96,190 C96,184 100,180 106,180 C112,180 116,184 116,190 L116,220 C116,226 112,230 106,230 Z" id="Tooth" fill-rule="nonzero"></path>
                <path d="M146,230 C140,230 136,226 136,220 L136,190 C136,184 140,180 146,180 C152,180 156,184 156,190 L156,220 C156,226 152,230 146,230 Z" id="Tooth" fill-rule="nonzero"></path>
                <circle id="Eye" cx="93" cy="132" r="18"></circle>
                <circle id="Eye" cx="159" cy="132" r="18"></circle>
            </g>
        </g>
    </g>
</svg>