<?xml version="1.0" encoding="UTF-8"?>
<svg width="92px" height="80px" viewBox="0 0 92 80" version="1.1" xmlns="http://www.w3.org/2000/svg" xmlns:xlink="http://www.w3.org/1999/xlink">
    <!-- Generator: Sketch 45.1 (43504) - http://www.bohemiancoding.com/sketch -->
    <title>Combined Shape</title>
    <desc>Created with Sketch.</desc>
    <defs></defs>
    <g id="Page-1" stroke="none" stroke-width="1" fill="none" fill-rule="evenodd">
        <g id="Dribbble-Shot" transform="translate(-466.000000, -60.000000)" fill="#9013FE">
            <path d="M538.903562,113.176724 C539.147405,112.609553 539.375669,112.028416 539.588354,111.433313 C540.329016,109.36793 540.822784,107.130466 541.069671,104.720852 C541.316558,102.311238 541.44,99.6311982 541.44,96.680651 L512.628395,96.680651 L512.628395,107.892674 L524.552992,107.892674 C524.306105,109.515475 523.837026,110.892377 523.145742,112.02342 C522.454457,113.154463 521.57802,114.076495 520.516405,114.789544 C519.45479,115.502593 518.257404,116.018931 516.924213,116.338574 C515.591021,116.658216 514.208473,116.818035 512.776527,116.818035 C510.357031,116.818035 508.233832,116.412341 506.406866,115.60094 C504.5799,114.78954 503.049221,113.64622 501.814785,112.170946 C500.580348,110.695673 499.654535,108.949959 499.037316,106.933751 C498.420098,104.917544 498.111494,102.729254 498.111494,100.368817 C498.111494,97.7624998 498.469475,95.4020975 499.185448,93.2875386 C499.901421,91.1729798 500.888956,89.3657967 502.148081,87.8659352 C503.407206,86.3660737 504.92554,85.21046 506.703129,84.3990595 C508.480718,83.587659 510.455787,83.1819649 512.628395,83.1819649 C515.2454,83.1819649 517.578451,83.845828 519.627615,85.1735743 C521.67678,86.5013205 523.343244,88.6896103 524.627058,91.7385091 L538.403301,86.058734 C535.835673,80.7969248 532.354614,76.9120959 527.96002,74.4041307 C523.679618,71.9613341 518.72004,70.708216 513.081146,70.6447419 L516.664156,67.0725802 C521.20416,62.5441976 527.363006,60 533.785048,60 C540.20709,60 546.365936,62.5441976 550.90594,67.0725802 C555.448076,71.5988377 558,77.7390358 558,84.1416334 C558,90.5442309 555.448076,96.6844291 550.90594,101.210686 L546.240607,105.861894 L538.903562,113.176724 Z M525.285434,126.753618 L511.998823,140 L498.290875,126.333557 C498.940745,126.649882 499.609265,126.944917 500.296435,127.218662 C503.876301,128.64476 507.838783,129.357798 512.184,129.357798 C515.344158,129.357798 518.356138,128.964398 521.22003,128.177585 C522.632199,127.789613 523.98733,127.314958 525.285434,126.753618 Z M486.064127,114.14383 L477.757039,105.861894 L473.091705,101.210686 C463.636098,91.7837087 463.636098,76.4995581 473.091706,67.0725805 C482.547313,57.6456029 497.877882,57.6456028 507.33349,67.0725802 L510.948091,70.6762367 C507.11406,70.8334289 503.600568,71.5351246 500.407534,72.7813379 C496.753602,74.2074357 493.630524,76.1990252 491.038208,78.7561662 C488.445891,81.3133071 486.446134,84.3990414 485.038876,88.0134618 C483.631618,91.6278822 482.928,95.5987674 482.928,99.9262367 C482.928,104.302882 483.643962,108.298355 485.075909,111.912775 C485.37975,112.679709 485.709156,113.423394 486.064127,114.14383 Z" id="Combined-Shape"></path>
        </g>
    </g>
</svg>